<?xml version="1.0" encoding="UTF-8"?>
<svg width="217px" height="217px" viewBox="0 0 217 217" version="1.1" xmlns="http://www.w3.org/2000/svg" xmlns:xlink="http://www.w3.org/1999/xlink">
    <!-- Generator: Sketch 63.1 (92452) - https://sketch.com -->
    <title>Group 2</title>
    <desc>Created with Sketch.</desc>
    <g id="Page-1" stroke="none" stroke-width="1" fill="none" fill-rule="evenodd">
        <g id="Group-2">
            <circle id="Oval" fill="#FFEFFE" cx="108.5" cy="108.5" r="108.5"></circle>
            <path d="M100.796246,23 C102.18263,23 103.309066,23.3035804 104.175556,23.9107413 C105.042046,24.5179022 105.475291,25.4286435 105.475291,26.6429652 C105.475291,28.3777105 104.998721,29.5920323 104.045583,30.2859304 C103.092444,30.9798285 101.662736,31.5869894 99.756458,32.107413 C92.8245394,34.0156329 88.3621167,36.1840645 86.3691901,38.612708 C84.3762635,41.0413515 83.3798002,44.8577912 83.3798002,50.0620272 L83.3798002,50.0620272 L83.3798002,102.885023 C83.3798002,104.272819 83.6397471,105.313666 84.159641,106.007564 C84.6795349,106.701462 85.2860778,107.048411 85.9792697,107.048411 C86.8457595,107.048411 87.7988983,106.658094 88.8386861,105.877458 C89.8784739,105.096823 91.0915597,104.099344 92.4779434,102.885023 L92.4779434,102.885023 L142.387758,49.02118 C143.774141,47.4599092 144.943903,46.0287443 145.897042,44.7276853 C146.85018,43.4266263 147.32675,42.168936 147.32675,40.9546142 C147.32675,37.311649 143.774141,34.709531 136.668925,33.1482602 C134.762647,32.6278366 133.332939,31.9339385 132.3798,31.0665658 C131.426661,30.1991931 130.950092,28.9848714 130.950092,27.4236006 C130.950092,26.2092789 131.51331,25.2985376 132.639747,24.6913767 C133.766184,24.0842158 134.935945,23.7806354 136.149031,23.7806354 L136.149031,23.7806354 L154.08537,23.7806354 C159.977501,23.7806354 165.696334,23.7372668 171.241869,23.6505295 C172.845346,23.6254497 174.456066,23.5967439 176.074031,23.5644123 C180.621551,27.2083529 184.866684,31.2128406 188.769139,35.5328196 C186.309451,36.2967958 183.977104,37.1495078 181.769721,38.0922844 C175.271047,40.867877 169.508889,44.2506304 164.483248,48.2405446 C159.284309,52.2304589 154.258668,56.5239536 149.406325,61.1210287 C144.553982,65.7181039 139.701639,70.4886536 134.849296,75.4326778 C129.996953,80.376702 124.884663,85.3640948 119.512426,90.3948563 C117.086255,92.6500252 117.172904,95.2521432 119.772373,98.2012103 L119.772373,98.2012103 L181.899694,167.937973 C184.325866,170.540091 186.708713,172.881997 189.048235,174.963691 C189.954808,175.770355 190.91993,176.537945 191.943602,177.266462 C187.165607,183.059424 181.794714,188.346874 175.92618,193.037814 C170.976482,192.783839 165.775907,192.658094 160.324097,192.658094 C154.605264,192.658094 149.276352,192.874937 144.33736,193.308623 C139.398368,193.74231 133.896157,193.959153 127.830729,193.959153 C126.617643,193.959153 125.447882,193.612204 124.321445,192.918306 C123.195008,192.224407 122.63179,191.270298 122.63179,190.055976 C122.63179,187.280383 124.364769,185.458901 127.830729,184.591528 C134.762647,183.203732 138.401905,180.861826 138.7485,177.565809 C138.7485,176.178013 138.35858,174.833585 137.578739,173.532526 C136.798898,172.231467 135.715786,170.713565 134.329402,168.97882 L134.329402,168.97882 L91.9580495,119.79879 C90.7449638,118.410993 89.618527,117.370146 88.5787392,116.676248 C87.5389514,115.98235 86.5858126,115.635401 85.7193227,115.635401 C85.0261309,115.635401 84.4629125,116.025719 84.0296676,116.806354 C83.5964226,117.586989 83.3798002,118.671205 83.3798002,120.059002 C83.3798002,127.865356 83.4231247,135.584972 83.5097737,143.217852 C83.5964226,150.850731 83.8130451,158.83056 84.159641,167.157337 C84.332939,170.279879 84.7661839,172.968734 85.4593758,175.223903 C86.1525677,177.479072 87.4956269,179.300555 89.4885535,180.688351 C91.4814801,182.076147 94.730817,183.463944 99.2365641,184.85174 C101.142842,185.372163 102.789172,185.979324 104.175556,186.673222 C105.56194,187.367121 106.255132,188.494705 106.255132,190.055976 C106.255132,191.270298 105.475291,192.267776 103.915609,193.048411 C102.355928,193.829047 100.622948,194.219365 98.7166702,194.219365 C93.3444333,194.219365 88.6653882,194.04589 84.6795349,193.698941 C80.6936817,193.351992 77.0544244,193.005043 73.7617631,192.658094 C70.4691017,192.311145 67.1764403,192.13767 63.883779,192.13767 C60.2445217,192.13767 56.7785623,192.354513 53.485901,192.7882 C50.1932396,193.221886 46.5973068,193.655572 42.6981026,194.089259 C42.4623743,194.115477 42.2230041,194.140904 41.9799919,194.165537 C37.9746517,191.076976 34.1947557,187.713484 30.6646588,184.104641 C35.4903651,182.829268 38.7640625,181.257394 40.4885535,179.387292 C42.5681291,177.132123 43.6079169,173.228946 43.6079169,167.677761 L43.6079169,167.677761 L43.6079169,49.8018154 C43.6079169,44.0771558 42.4381556,40.0872416 40.0986331,37.8320726 C38.217294,36.018567 34.851083,34.4294213 30,33.0646356 C33.4231731,29.4988597 37.0898782,26.1684394 40.9715266,23.097814 C44.5523822,23.2548935 48.0731645,23.4382848 51.5362989,23.6505295 C55.782099,23.9107413 59.6379788,24.0408472 63.1039381,24.0408472 C66.5698974,24.0408472 70.4691017,23.9541099 74.8015509,23.7806354 C79.134,23.6071609 83.5964226,23.4336863 88.1888188,23.2602118 C92.7812149,23.0867373 96.9836906,23 100.796246,23 Z" id="Combined-Shape" fill="#0031B7"></path>
        </g>
    </g>
</svg>