<?xml version="1.0" encoding="UTF-8"?>
<svg width="217px" height="217px" viewBox="0 0 217 217" version="1.1" xmlns="http://www.w3.org/2000/svg" xmlns:xlink="http://www.w3.org/1999/xlink">
    <title>favicon</title>
    <style>
        path {
            fill: #0031B7;
        }
        @media (prefers-color-scheme: dark) {
            path {
                fill: #ffeffe;
            }
        }
    </style>s
    <g id="Page-1" stroke="none" stroke-width="1" fill="none" fill-rule="evenodd">
        <path d="M183.958592,30.5367367 C204.333825,50.261403 217,77.9015297 217,108.5 C217,168.422895 168.422895,217 108.5,217 C79.0085457,217 52.2652486,205.23374 32.7084282,186.139541 C35.6425947,188.984579 38.7374161,191.665152 41.9799919,194.165537 C42.2230041,194.140904 42.4623743,194.115477 42.6981026,194.089259 C46.5973068,193.655572 50.1932396,193.221886 53.485901,192.7882 C56.7785623,192.354513 60.2445217,192.13767 63.883779,192.13767 C67.1764403,192.13767 70.4691017,192.311145 73.7617631,192.658094 C77.0544244,193.005043 80.6936817,193.351992 84.6795349,193.698941 C88.6653882,194.04589 93.3444333,194.219365 98.7166702,194.219365 C100.622948,194.219365 102.355928,193.829047 103.915609,193.048411 C105.475291,192.267776 106.255132,191.270298 106.255132,190.055976 C106.255132,188.494705 105.56194,187.367121 104.175556,186.673222 C102.789172,185.979324 101.142842,185.372163 99.2365641,184.85174 C94.730817,183.463944 91.4814801,182.076147 89.4885535,180.688351 C87.4956269,179.300555 86.1525677,177.479072 85.4593758,175.223903 C84.7661839,172.968734 84.332939,170.279879 84.159641,167.157337 C83.8130451,158.83056 83.5964226,150.850731 83.5097737,143.217852 C83.4231247,135.584972 83.3798002,127.865356 83.3798002,120.059002 C83.3798002,118.671205 83.5964226,117.586989 84.0296676,116.806354 C84.4629125,116.025719 85.0261309,115.635401 85.7193227,115.635401 C86.5858126,115.635401 87.5389514,115.98235 88.5787392,116.676248 C89.618527,117.370146 90.7449638,118.410993 91.9580495,119.79879 L91.9580495,119.79879 L134.329402,168.97882 L134.66968,169.407989 C135.894199,170.965043 136.863885,172.339889 137.578739,173.532526 C138.35858,174.833585 138.7485,176.178013 138.7485,177.565809 C138.401905,180.861826 134.762647,183.203732 127.830729,184.591528 C124.364769,185.458901 122.63179,187.280383 122.63179,190.055976 C122.63179,191.270298 123.195008,192.224407 124.321445,192.918306 C125.447882,193.612204 126.617643,193.959153 127.830729,193.959153 C133.896157,193.959153 139.398368,193.74231 144.33736,193.308623 C149.276352,192.874937 154.605264,192.658094 160.324097,192.658094 C165.775907,192.658094 170.976482,192.783839 175.92618,193.037814 C181.794714,188.346874 187.165607,183.059424 191.943602,177.266462 C190.91993,176.537945 189.954808,175.770355 189.048235,174.963691 C186.708713,172.881997 184.325866,170.540091 181.899694,167.937973 L181.899694,167.937973 L119.772373,98.2012103 L119.586653,97.9860441 C117.170172,95.125417 117.14543,92.5950211 119.512426,90.3948563 C124.884663,85.3640948 129.996953,80.376702 134.849296,75.4326778 C139.701639,70.4886536 144.553982,65.7181039 149.406325,61.1210287 C154.258668,56.5239536 159.284309,52.2304589 164.483248,48.2405446 C169.508889,44.2506304 175.271047,40.867877 181.769721,38.0922844 C183.977104,37.1495078 186.309451,36.2967958 188.769139,35.5328196 C187.468321,34.0928266 186.129427,32.6878882 184.753951,31.3196731 Z M30.4052396,33.1801638 C35.0390036,34.5188662 38.2701348,36.0695025 40.0986331,37.8320726 C42.4381556,40.0872416 43.6079169,44.0771558 43.6079169,49.8018154 L43.6079169,49.8018154 L43.6079169,167.677761 L43.6050525,168.177874 C43.5439446,173.463989 42.5051117,177.200461 40.4885535,179.387292 C38.7640625,181.257394 35.4903651,182.829268 30.6646588,184.104641 L30.675366,184.101533 C11.6902492,164.56168 0,137.896042 0,108.5 C0,79.7370102 11.1921649,53.5880906 29.4590093,34.1707267 Z M108.5,0 C134.024125,0 157.48975,8.8134872 176.019592,23.5631785 L173.652517,23.6101903 L173.652517,23.6101903 L171.241869,23.6505295 C165.696334,23.7372668 159.977501,23.7806354 154.08537,23.7806354 L154.08537,23.7806354 L136.149031,23.7806354 L135.819264,23.7881622 C134.723619,23.8383408 133.663781,24.1394123 132.639747,24.6913767 C131.51331,25.2985376 130.950092,26.2092789 130.950092,27.4236006 C130.950092,28.9848714 131.426661,30.1991931 132.3798,31.0665658 C133.332939,31.9339385 134.762647,32.6278366 136.668925,33.1482602 C143.774141,34.709531 147.32675,37.311649 147.32675,40.9546142 C147.32675,42.168936 146.85018,43.4266263 145.897042,44.7276853 C144.943903,46.0287443 143.774141,47.4599092 142.387758,49.02118 L142.387758,49.02118 L92.4779434,102.885023 L92.0672272,103.242814 C90.8506755,104.296672 89.7744951,105.174887 88.8386861,105.877458 C87.7988983,106.658094 86.8457595,107.048411 85.9792697,107.048411 C85.2860778,107.048411 84.6795349,106.701462 84.159641,106.007564 C83.6397471,105.313666 83.3798002,104.272819 83.3798002,102.885023 L83.3798002,102.885023 L83.3798002,50.0620272 L83.3829109,49.5627238 C83.445125,44.6130134 84.4405515,40.9630081 86.3691901,38.612708 C88.3621167,36.1840645 92.8245394,34.0156329 99.756458,32.107413 C101.662736,31.5869894 103.092444,30.9798285 104.045583,30.2859304 C104.998721,29.5920323 105.475291,28.3777105 105.475291,26.6429652 C105.475291,25.4286435 105.042046,24.5179022 104.175556,23.9107413 C103.309066,23.3035804 102.18263,23 100.796246,23 C96.9836906,23 92.7812149,23.0867373 88.1888188,23.2602118 C83.5964226,23.4336863 79.134,23.6071609 74.8015509,23.7806354 C70.4691017,23.9541099 66.5698974,24.0408472 63.1039381,24.0408472 C59.6379788,24.0408472 55.782099,23.9107413 51.5362989,23.6505295 C48.0731645,23.4382848 44.5523822,23.2548935 40.9715266,23.097814 L41.5384947,23.1219113 C59.9803678,8.63787608 83.2314419,0 108.5,0 Z" id="favicon" fill="#0031B7"></path>
    </g>
</svg>
