<?xml version="1.0" encoding="utf-8"?>
<svg version="1.1" id="Layer_1" xmlns="http://www.w3.org/2000/svg" xmlns:xlink="http://www.w3.org/1999/xlink" x="0px" y="0px"
	 viewBox="0 0 800 800" style="enable-background:new 0 0 800 800;" xml:space="preserve">
<g>
	<g>
		<path d="M103.05,314.72c-6.03-1.51-10.8-4.36-14.31-8.54c-3.52-4.17-5.79-9.14-6.83-14.9c-0.28-1.54-0.43-2.69-0.45-3.43
			l-0.07-1.27l26.25-7.01l0.19,1.08c0.72,4.01,2.4,7.19,5.05,9.56c2.65,2.36,6.51,2.87,11.59,1.51c4.76-1.27,8.53-3.71,11.31-7.3
			c2.77-3.59,3.8-7.4,3.08-11.41c-0.5-2.77-1.91-4.74-4.23-5.9c-2.32-1.16-4.99-1.66-8-1.5l-12.41,0.73
			c-6.35,0.3-12.54-0.74-18.55-3.12c-6.02-2.38-9.77-7.73-11.27-16.05c-1.29-7.19-0.57-14.17,2.18-20.94
			c2.75-6.76,7.17-12.66,13.27-17.68c6.1-5.02,13.34-8.66,21.73-10.9c8.28-2.21,15.4-2.47,21.35-0.78c5.95,1.7,10.62,4.73,14.01,9.1
			c3.39,4.37,5.6,9.44,6.64,15.19l0.14,0.77l-27.5,7.35l-0.08-0.46c-0.63-3.49-2.07-6.37-4.32-8.62c-2.25-2.25-5.86-2.72-10.83-1.39
			c-4.25,1.13-7.59,3.4-10.01,6.8c-2.43,3.4-3.29,7.05-2.59,10.95c0.9,5.04,5.34,7.36,13.3,6.95l12.62-0.46
			c7.34-0.24,13.78,1.03,19.32,3.8c5.55,2.77,8.97,7.81,10.28,15.11c1.31,7.3,0.46,14.5-2.55,21.6
			c-3.01,7.11-7.78,13.34-14.31,18.69c-6.53,5.35-14.09,9.18-22.69,11.47C116.17,315.9,109.07,316.23,103.05,314.72z"/>
		<path d="M110.97,317.14c-2.95,0-5.72-0.32-8.29-0.97c-6.31-1.58-11.39-4.62-15.1-9.02c-3.67-4.36-6.08-9.61-7.16-15.6
			c-0.29-1.63-0.45-2.82-0.48-3.65l-0.13-2.46l29-7.75l0.48,2.68c0.67,3.7,2.16,6.55,4.58,8.7c2.23,1.99,5.67,2.39,10.2,1.18
			c4.42-1.18,7.95-3.46,10.51-6.77c2.53-3.27,3.44-6.62,2.79-10.22c-0.41-2.3-1.53-3.88-3.43-4.82c-2.08-1.03-4.52-1.49-7.26-1.34
			l-12.4,0.73c-6.56,0.3-13-0.78-19.19-3.23c-6.5-2.57-10.61-8.35-12.19-17.18c-1.34-7.45-0.57-14.77,2.27-21.77
			c2.83-6.97,7.44-13.12,13.7-18.28c6.24-5.14,13.74-8.9,22.3-11.19c8.51-2.27,15.96-2.53,22.15-0.77
			c6.24,1.78,11.21,5.02,14.78,9.63c3.53,4.55,5.86,9.88,6.93,15.85l0.38,2.13l-30.41,8.12l-0.37-2.07c-0.57-3.17-1.88-5.8-3.9-7.83
			c-1.83-1.84-4.99-2.17-9.38-1c-3.94,1.05-6.94,3.09-9.18,6.22c-2.2,3.08-2.97,6.29-2.33,9.81c0.28,1.55,1.13,6.26,11.74,5.72
			l12.64-0.46c7.56-0.25,14.31,1.09,20.05,3.96c5.97,2.98,9.7,8.43,11.09,16.18c1.36,7.55,0.47,15.11-2.65,22.45
			c-3.09,7.3-8.05,13.78-14.74,19.26c-6.66,5.46-14.48,9.42-23.25,11.76C119.8,316.48,115.19,317.14,110.97,317.14z M82.95,287.71
			l0,0.06c0.02,0.7,0.17,1.78,0.43,3.25c0.98,5.47,3.17,10.25,6.5,14.2c3.3,3.91,7.85,6.62,13.53,8.05h0
			c5.74,1.44,12.66,1.11,20.56-1c8.35-2.23,15.79-5.99,22.12-11.18c6.31-5.17,10.98-11.26,13.88-18.11
			c2.88-6.8,3.71-13.78,2.45-20.75c-1.23-6.87-4.33-11.46-9.48-14.03c-5.29-2.65-11.55-3.87-18.61-3.65l-12.61,0.46
			c-8.78,0.45-13.77-2.31-14.83-8.18c-0.77-4.3,0.19-8.37,2.85-12.09c2.62-3.67,6.27-6.15,10.85-7.37c5.5-1.47,9.63-0.87,12.28,1.78
			c2.21,2.22,3.72,5,4.5,8.28l24.62-6.58c-1.03-5.25-3.13-9.94-6.24-13.95c-3.17-4.09-7.62-6.98-13.24-8.58
			c-5.66-1.61-12.57-1.35-20.55,0.78c-8.14,2.17-15.26,5.74-21.17,10.6c-5.88,4.84-10.19,10.59-12.83,17.09
			c-2.63,6.47-3.33,13.23-2.1,20.11c1.41,7.85,4.79,12.73,10.34,14.92c5.79,2.29,11.82,3.3,17.93,3.02l12.39-0.73
			c3.26-0.17,6.21,0.38,8.76,1.65c2.76,1.38,4.46,3.72,5.04,6.97c0.79,4.43-0.34,8.66-3.37,12.59c-2.96,3.84-7.04,6.48-12.11,7.84
			c-5.57,1.49-9.94,0.87-12.97-1.84c-2.78-2.47-4.6-5.8-5.43-9.89L82.95,287.71z"/>
	</g>
	<g>
		<path d="M248.77,187.89l-28.74,7.68l1.33,90.77l-24.08,6.43L195.95,202l-28.59,7.64l-0.35-21.88l81.25-21.71L248.77,187.89z"/>
		<path d="M195.81,294.72l-1.33-90.77l-28.58,7.64l-0.4-24.97l84.23-22.5l0.58,24.92l-28.75,7.68l1.33,90.77L195.81,294.72z
			 M197.43,200.05l1.33,90.77l21.09-5.63l-1.33-90.77l28.73-7.68l-0.43-18.75l-78.28,20.91l0.3,18.79L197.43,200.05z"/>
	</g>
	<g>
		<path d="M333.13,197.99c-3.56,7.95-9.16,14.56-16.79,19.83l24.02,36.72l-25.32,6.77l-21.85-33.75l-12.58,3.36l0.57,39.43
			l-24.08,6.43l-1.83-112.61l41.32-11.04c11.39-3.04,20.46-2.58,27.19,1.38c6.74,3.96,10.87,10.21,12.4,18.74
			C337.71,181.79,336.7,190.04,333.13,197.99z M280.35,210.48l13.21-3.53c6.94-1.85,12.16-4.95,15.67-9.28
			c3.51-4.33,4.78-9.22,3.8-14.67c-0.76-4.21-2.95-6.78-6.59-7.69c-3.64-0.91-8.05-0.68-13.22,0.71l-13.36,3.57L280.35,210.48z"/>
		<path d="M255.62,278.74l-1.88-115.7l42.46-11.34c11.74-3.14,21.28-2.62,28.34,1.54c7.1,4.18,11.51,10.83,13.12,19.77
			c1.58,8.79,0.52,17.41-3.16,25.61h0c-3.47,7.75-8.89,14.34-16.11,19.61l24.36,37.25l-28.38,7.58l-21.85-33.75l-10.4,2.78
			l0.57,39.43L255.62,278.74z M256.78,165.33l1.78,109.52l21.09-5.64l-0.57-39.43l14.77-3.95l21.85,33.75l22.27-5.95l-23.68-36.21
			l1.2-0.83c7.37-5.09,12.84-11.55,16.27-19.21h0c3.42-7.64,4.41-15.66,2.94-23.85c-1.46-8.15-5.29-13.95-11.69-17.71
			c-6.35-3.73-15.11-4.15-26.05-1.22L256.78,165.33z M278.88,212.42l-0.55-33.98l14.49-3.87c5.4-1.44,10.1-1.68,13.98-0.71
			c4.25,1.07,6.84,4.06,7.7,8.88c1.05,5.87-0.33,11.21-4.11,15.88c-3.7,4.56-9.23,7.85-16.45,9.78L278.88,212.42z M281.36,180.73
			l0.45,27.8l11.35-3.03c6.59-1.76,11.6-4.71,14.9-8.77c3.25-4.01,4.39-8.41,3.48-13.46c-0.65-3.61-2.44-5.74-5.48-6.5
			c-3.37-0.84-7.57-0.61-12.47,0.7L281.36,180.73z"/>
	</g>
	<g>
		<path d="M368.73,242.53c-7.04-2.05-12.68-5.93-16.91-11.64c-4.23-5.71-7.08-12.68-8.56-20.9c-2.25-12.54-1.65-24.74,1.81-36.6
			c3.46-11.86,9.28-22.05,17.46-30.6c8.18-8.54,17.81-14.29,28.89-17.25c9.22-2.46,17.27-2.62,24.17-0.48
			c6.9,2.14,12.5,6.11,16.79,11.91c4.3,5.8,7.2,12.92,8.72,21.34c2.25,12.54,1.67,24.68-1.76,36.42
			c-3.43,11.74-9.19,21.79-17.3,30.15c-8.1,8.36-17.7,14.02-28.78,16.98C383.96,244.35,375.77,244.58,368.73,242.53z M407.02,209.6
			c3.96-5.15,6.71-11.46,8.24-18.93c1.53-7.46,1.59-15.15,0.17-23.07c-1.33-7.4-4.01-12.96-8.04-16.67c-4.03-3.71-9.26-4.72-15.68-3
			c-5.49,1.47-10.23,4.83-14.22,10.1c-3.99,5.27-6.78,11.64-8.37,19.12c-1.59,7.48-1.67,15.18-0.25,23.09
			c1.29,7.2,3.98,12.65,8.06,16.35c4.08,3.7,9.33,4.7,15.76,2.98C398.28,218.07,403.06,214.75,407.02,209.6z"/>
		<path d="M378.96,245.41c-3.79,0-7.35-0.48-10.65-1.44l0,0c-7.34-2.13-13.29-6.23-17.69-12.19c-4.35-5.87-7.32-13.11-8.83-21.53
			c-2.28-12.71-1.66-25.26,1.85-37.28c3.51-12.03,9.51-22.54,17.82-31.21c8.34-8.7,18.29-14.65,29.59-17.66
			c9.45-2.52,17.86-2.68,25-0.46c7.18,2.23,13.08,6.42,17.55,12.45c4.42,5.96,7.44,13.35,8.99,21.97
			c2.28,12.71,1.68,25.19-1.8,37.11c-3.48,11.92-9.42,22.28-17.66,30.77c-8.26,8.52-18.17,14.37-29.47,17.38
			C388.44,244.71,383.53,245.41,378.96,245.41z M405.22,125.07c-4.15,0-8.62,0.64-13.41,1.92c-10.76,2.87-20.25,8.54-28.2,16.84
			c-7.98,8.33-13.73,18.41-17.1,29.98c-3.38,11.57-3.98,23.66-1.77,35.91c1.43,7.96,4.22,14.78,8.29,20.27
			c4.01,5.41,9.43,9.15,16.12,11.09l0,0c6.74,1.96,14.73,1.74,23.74-0.67c10.77-2.88,20.22-8.45,28.09-16.57
			c7.9-8.14,13.59-18.08,16.93-29.53c3.34-11.46,3.92-23.49,1.72-35.73c-1.47-8.16-4.31-15.13-8.45-20.71
			c-4.09-5.51-9.48-9.34-16.03-11.37C412.11,125.55,408.79,125.07,405.22,125.07z M386.94,221.88c-4.25,0-7.94-1.4-11.02-4.18
			c-4.32-3.91-7.19-9.7-8.53-17.19c-1.45-8.07-1.36-16.03,0.26-23.67c1.63-7.67,4.53-14.3,8.64-19.72
			c4.18-5.51,9.24-9.1,15.03-10.64c6.92-1.85,12.66-0.72,17.08,3.35c4.26,3.93,7.12,9.82,8.5,17.51c1.45,8.06,1.39,16.02-0.18,23.64
			c-1.58,7.66-4.44,14.23-8.52,19.54c-4.15,5.39-9.24,8.93-15.13,10.5C390.92,221.59,388.87,221.88,386.94,221.88z M397.45,148.61
			c-1.66,0-3.44,0.26-5.36,0.77c-5.14,1.37-9.65,4.59-13.41,9.56c-3.84,5.06-6.56,11.3-8.1,18.53c-1.54,7.25-1.62,14.83-0.24,22.51
			c1.23,6.83,3.78,12.04,7.6,15.5c3.71,3.37,8.41,4.23,14.36,2.64c5.24-1.4,9.79-4.57,13.53-9.43l0,0c3.8-4.94,6.48-11.1,7.96-18.31
			c1.49-7.25,1.54-14.82,0.16-22.5c-1.26-7.03-3.82-12.36-7.58-15.84C403.89,149.74,400.94,148.61,397.45,148.61z"/>
	</g>
	<g>
		<path d="M449.45,112.3l28.12-7.51l40.89,63.56l0.47-0.12l-1.12-74.19l24.08-6.43l1.7,112.81l-28.43,7.6l-40.42-60.94l-0.62,0.17
			l1.11,71.44l-23.92,6.39L449.45,112.3z"/>
		<path d="M449.84,227.01l-1.91-115.86l30.31-8.1l39.12,60.81l-1.07-70.98l27.07-7.23l1.75,115.9l-30.6,8.18l-38.82-58.54
			l1.07,68.62L449.84,227.01z M450.97,113.45l1.81,109.67l20.94-5.59l-1.11-71.44l2.79-0.75l40.42,60.94l26.26-7.01l-1.66-109.71
			l-21.09,5.63l1.12,74.19l-2.66,0.71l-40.89-63.56L450.97,113.45z"/>
	</g>
	<g>
		<path d="M575.93,186.93c-6.55-2.34-11.81-6.4-15.78-12.18c-3.97-5.78-6.67-12.68-8.11-20.7c-2.23-12.44-1.62-24.58,1.84-36.44
			c3.46-11.86,9.23-22.04,17.3-30.56c8.08-8.51,17.55-14.22,28.43-17.13c12.32-3.29,22.49-2.43,30.5,2.59
			c8.01,5.03,13.73,12.84,17.16,23.45l-25.48,6.81c-1.49-4.66-4.05-8.02-7.67-10.07c-3.62-2.05-8.29-2.31-13.98-0.79
			c-6.01,1.6-11.08,5.09-15.22,10.45c-4.14,5.36-6.97,11.94-8.5,19.72c-1.53,7.79-1.52,16,0.03,24.63
			c1.44,8.02,4.38,13.69,8.84,17.03c4.45,3.33,10.15,4.08,17.09,2.22c4.97-1.33,9.13-3.57,12.47-6.72
			c3.34-3.15,5.79-6.72,7.36-10.69c1.57-3.97,2.17-7.85,1.82-11.64l-0.05-2.09l-19.89,5.31l-0.28-17.86l44.12-11.79l0.98,61.62
			l-17.87,4.77l-0.26-15.93l-1.24,0.33c-6.19,13.29-16.43,21.84-30.72,25.66C590.11,189.28,582.48,189.27,575.93,186.93z"/>
		<path d="M586.61,190.18c-4.01,0-7.75-0.61-11.19-1.84c-6.82-2.44-12.38-6.73-16.51-12.74c-4.07-5.93-6.88-13.09-8.35-21.28
			c-2.26-12.61-1.63-25.1,1.88-37.13c3.51-12.03,9.45-22.52,17.66-31.17c8.24-8.68,18.04-14.58,29.13-17.54
			c12.68-3.39,23.34-2.46,31.69,2.77c8.28,5.19,14.26,13.36,17.79,24.26l0.49,1.5l-28.39,7.58l-0.43-1.36
			c-1.38-4.33-3.67-7.35-6.98-9.22c-3.25-1.84-7.58-2.06-12.86-0.65c-5.65,1.51-10.5,4.85-14.42,9.92
			c-3.97,5.15-6.74,11.57-8.22,19.09c-1.49,7.57-1.48,15.67,0.03,24.08c1.36,7.59,4.14,13.01,8.26,16.09
			c4.1,3.07,9.27,3.72,15.8,1.97c4.7-1.26,8.68-3.4,11.83-6.37c3.17-2.99,5.52-6.4,6.99-10.15c1.47-3.73,2.05-7.42,1.72-10.95
			l-0.01-0.29l-19.9,5.32l-0.33-20.95l47.11-12.59l1.02,64.71l-20.85,5.57l-0.22-13.83c-6.48,11.91-16.6,19.78-30.14,23.39
			C594.76,189.59,590.55,190.18,586.61,190.18z M613.19,69.48c-4.07,0-8.48,0.63-13.19,1.89c-10.55,2.82-19.88,8.44-27.73,16.71
			c-7.87,8.3-13.58,18.38-16.95,29.94c-3.38,11.58-3.99,23.61-1.8,35.76c1.4,7.77,4.04,14.54,7.87,20.11
			c3.77,5.49,8.83,9.4,15.05,11.62l0,0c6.23,2.23,13.62,2.23,21.99-0.01c13.78-3.68,23.79-12.04,29.75-24.84l0.3-0.64l3.78-1.01
			l0.26,15.93l14.88-3.98l-0.93-58.53l-41.13,10.99l0.23,14.77l19.87-5.31l0.09,3.94c0.36,3.99-0.28,8.12-1.92,12.27
			c-1.64,4.16-4.24,7.94-7.72,11.23c-3.51,3.31-7.92,5.7-13.11,7.08c-7.37,1.97-13.56,1.14-18.37-2.47
			c-4.75-3.55-7.91-9.6-9.42-17.96c-1.58-8.78-1.59-17.25-0.02-25.19c1.57-7.98,4.53-14.83,8.79-20.35
			c4.33-5.6,9.72-9.3,16.02-10.98c6.06-1.62,11.14-1.31,15.11,0.93c3.58,2.03,6.23,5.24,7.89,9.57l22.59-6.03
			c-3.35-9.46-8.73-16.57-16.02-21.14C624.73,70.92,619.34,69.48,613.19,69.48z"/>
	</g>
</g>
<g>
	<g>
		<path d="M107.83,445.86c-7.04-2.05-12.68-5.93-16.91-11.64c-4.23-5.71-7.08-12.68-8.56-20.9c-2.25-12.54-1.65-24.74,1.81-36.6
			c3.46-11.86,9.28-22.05,17.46-30.6c8.18-8.54,17.81-14.29,28.89-17.25c9.22-2.46,17.28-2.62,24.17-0.48
			c6.9,2.14,12.5,6.11,16.79,11.91c4.3,5.8,7.2,12.92,8.72,21.34c2.25,12.54,1.67,24.68-1.76,36.42
			c-3.43,11.74-9.19,21.79-17.3,30.15c-8.1,8.36-17.7,14.02-28.78,16.98C123.05,447.69,114.87,447.91,107.83,445.86z M146.12,412.93
			c3.96-5.15,6.71-11.46,8.24-18.92c1.53-7.46,1.59-15.15,0.17-23.07c-1.33-7.4-4.01-12.96-8.04-16.68c-4.03-3.71-9.26-4.72-15.68-3
			c-5.49,1.47-10.23,4.83-14.22,10.1c-3.99,5.27-6.78,11.64-8.37,19.12c-1.59,7.48-1.67,15.18-0.25,23.09
			c1.29,7.2,3.98,12.65,8.07,16.35c4.08,3.7,9.33,4.7,15.76,2.98C137.38,421.4,142.16,418.08,146.12,412.93z"/>
		<path d="M118.06,448.74c-3.79,0-7.35-0.48-10.65-1.44c-7.33-2.13-13.29-6.23-17.69-12.19c-4.35-5.87-7.32-13.11-8.83-21.53
			c-2.28-12.71-1.66-25.26,1.85-37.28c3.51-12.03,9.51-22.53,17.82-31.21c8.33-8.7,18.29-14.65,29.59-17.66
			c9.45-2.52,17.86-2.68,25-0.46c7.18,2.23,13.08,6.42,17.55,12.45c4.42,5.96,7.44,13.35,8.99,21.97c2.28,12.71,1.68,25.2-1.8,37.11
			c-3.48,11.92-9.42,22.28-17.66,30.77c-8.26,8.52-18.17,14.37-29.47,17.38C127.54,448.04,122.63,448.74,118.06,448.74z
			 M144.32,328.41c-4.15,0-8.62,0.64-13.4,1.92c-10.76,2.88-20.25,8.54-28.2,16.84c-7.98,8.33-13.73,18.41-17.1,29.98
			c-3.38,11.58-3.98,23.66-1.77,35.91c1.43,7.96,4.22,14.78,8.29,20.27c4.01,5.41,9.43,9.15,16.12,11.09h0
			c6.74,1.96,14.73,1.74,23.74-0.67c10.77-2.88,20.22-8.45,28.09-16.57c7.9-8.14,13.59-18.08,16.93-29.53
			c3.35-11.46,3.93-23.48,1.73-35.74c-1.47-8.16-4.31-15.13-8.45-20.71c-4.08-5.51-9.48-9.34-16.03-11.37
			C151.21,328.88,147.89,328.41,144.32,328.41z M126.04,425.21c-4.25,0-7.94-1.4-11.01-4.18c-4.32-3.91-7.19-9.69-8.53-17.19
			c-1.45-8.07-1.36-16.03,0.26-23.67c1.63-7.66,4.53-14.3,8.64-19.72c4.18-5.51,9.24-9.1,15.03-10.64
			c6.92-1.85,12.67-0.72,17.08,3.35c4.26,3.93,7.12,9.82,8.5,17.51c1.45,8.06,1.39,16.02-0.18,23.64
			c-1.57,7.66-4.44,14.23-8.52,19.54l0,0c-4.14,5.39-9.23,8.93-15.13,10.5C130.02,424.92,127.97,425.21,126.04,425.21z
			 M136.55,351.94c-1.66,0-3.44,0.26-5.36,0.77c-5.13,1.37-9.65,4.59-13.41,9.56c-3.84,5.06-6.56,11.3-8.1,18.53
			c-1.54,7.25-1.62,14.83-0.24,22.51c1.23,6.83,3.78,12.04,7.6,15.5c3.72,3.37,8.41,4.23,14.36,2.64c5.24-1.4,9.79-4.57,13.53-9.43
			l0,0c3.8-4.94,6.48-11.11,7.96-18.31c1.49-7.25,1.54-14.82,0.16-22.5c-1.26-7.04-3.81-12.36-7.58-15.84
			C142.98,353.08,140.04,351.94,136.55,351.94z"/>
	</g>
	<g>
		<path d="M256.92,306.5c6.74,4.29,10.9,10.85,12.49,19.69c1.48,8.22,0.87,16.19-1.81,23.91c-2.68,7.72-7.18,14.44-13.47,20.16
			c-6.3,5.72-13.95,9.79-22.96,12.19l-17.55,4.69l0.54,34.75l-23.77,6.35l-1.83-112.61l41.33-11.04
			C241.16,301.58,250.18,302.21,256.92,306.5z M242.76,352.77c3.47-4.86,4.63-10.47,3.49-16.85c-0.85-4.73-3.08-7.63-6.69-8.71
			c-3.61-1.08-7.96-0.94-13.03,0.41l-13.67,3.65l0.47,35.26l13.67-3.65C234.04,361,239.29,357.63,242.76,352.77z"/>
		<path d="M188.91,430.19l-1.88-115.7l42.46-11.34c11.66-3.11,21.16-2.41,28.24,2.09l0,0c7.08,4.5,11.5,11.46,13.16,20.69
			c1.52,8.44,0.89,16.74-1.87,24.67c-2.75,7.92-7.42,14.91-13.88,20.78c-6.45,5.86-14.38,10.08-23.59,12.53l-16.42,4.39l0.54,34.75
			L188.91,430.19z M190.07,316.78l1.78,109.52l20.78-5.55L212.09,386l18.69-4.99c8.74-2.33,16.25-6.32,22.34-11.86
			c6.08-5.52,10.48-12.1,13.07-19.54c2.59-7.43,3.17-15.22,1.75-23.15c-1.5-8.37-5.48-14.65-11.82-18.69l0,0
			c-6.34-4.03-15.04-4.61-25.85-1.72L190.07,316.78z M211.85,368.48l-0.51-38.35l14.8-3.95c5.32-1.42,9.98-1.56,13.85-0.4
			c4.18,1.25,6.79,4.58,7.74,9.89c1.21,6.75-0.05,12.8-3.74,17.98c-3.66,5.13-9.24,8.72-16.6,10.69L211.85,368.48z M214.37,332.43
			l0.43,32.17l11.81-3.16c6.67-1.78,11.69-4.99,14.93-9.53l0,0c3.25-4.56,4.31-9.7,3.23-15.71c-0.75-4.16-2.59-6.63-5.65-7.54
			c-3.33-1-7.44-0.85-12.22,0.42L214.37,332.43z"/>
	</g>
	<g>
		<path d="M276.48,292.14l24.39-6.52l1.68,112.65l-24.39,6.52L276.48,292.14z"/>
		<path d="M276.69,406.74L274.96,291l27.38-7.31l1.72,115.75L276.69,406.74z M278,293.29l1.63,109.56l21.4-5.72l-1.63-109.56
			L278,293.29z"/>
	</g>
	<g>
		<path d="M313.3,282.31l28.12-7.51l40.89,63.56l0.47-0.12l-1.12-74.19l24.08-6.43l1.7,112.81l-28.43,7.6l-40.42-60.94l-0.62,0.17
			l1.11,71.44l-23.92,6.39L313.3,282.31z"/>
		<path d="M313.69,397.02l-1.91-115.86l30.31-8.1l39.12,60.81l-1.07-70.98l27.07-7.23l1.75,115.9l-30.6,8.18l-38.82-58.54
			l1.07,68.62L313.69,397.02z M314.81,283.46l1.81,109.67l20.94-5.59l-1.11-71.44l2.79-0.75l40.42,60.94l26.26-7.02l-1.66-109.71
			l-21.09,5.63l1.12,74.19l-2.65,0.71l-40.89-63.56L314.81,283.46z"/>
	</g>
	<g>
		<path d="M418.16,254.29l24.39-6.52l1.68,112.65l-24.39,6.52L418.16,254.29z"/>
		<path d="M418.36,368.89l-1.72-115.75l27.38-7.31l1.72,115.75L418.36,368.89z M419.68,255.44L421.31,365l21.4-5.72l-1.63-109.56
			L419.68,255.44z"/>
	</g>
	<g>
		<path d="M478.81,346.75c-7.04-2.05-12.68-5.93-16.91-11.64c-4.23-5.71-7.08-12.67-8.56-20.9c-2.25-12.54-1.65-24.74,1.81-36.6
			c3.46-11.86,9.28-22.05,17.46-30.6c8.18-8.54,17.81-14.29,28.89-17.25c9.22-2.46,17.28-2.62,24.17-0.48
			c6.9,2.14,12.5,6.11,16.79,11.91c4.3,5.8,7.2,12.92,8.72,21.34c2.25,12.54,1.67,24.68-1.76,36.42
			c-3.43,11.74-9.19,21.79-17.3,30.15c-8.1,8.36-17.7,14.02-28.78,16.98C494.03,348.58,485.85,348.8,478.81,346.75z M517.09,313.82
			c3.96-5.15,6.71-11.46,8.24-18.92c1.53-7.46,1.59-15.15,0.17-23.07c-1.33-7.4-4.01-12.96-8.04-16.68c-4.03-3.71-9.26-4.72-15.68-3
			c-5.49,1.47-10.23,4.83-14.22,10.1c-4,5.27-6.78,11.64-8.37,19.12c-1.59,7.48-1.67,15.18-0.25,23.09
			c1.29,7.2,3.98,12.65,8.07,16.35c4.08,3.7,9.33,4.7,15.76,2.98C508.36,322.29,513.14,318.97,517.09,313.82z"/>
		<path d="M489.03,349.63c-3.79,0-7.35-0.48-10.65-1.44l0,0c-7.34-2.13-13.29-6.23-17.69-12.19c-4.35-5.87-7.32-13.11-8.83-21.53
			c-2.28-12.71-1.66-25.26,1.85-37.28c3.51-12.03,9.5-22.53,17.82-31.21c8.33-8.7,18.29-14.65,29.59-17.66
			c9.45-2.52,17.86-2.68,25-0.46c7.18,2.23,13.08,6.42,17.55,12.45c4.42,5.96,7.44,13.35,8.99,21.97c2.28,12.71,1.68,25.2-1.8,37.11
			c-3.48,11.92-9.42,22.28-17.66,30.77c-8.26,8.52-18.17,14.37-29.47,17.38C498.52,348.93,493.61,349.63,489.03,349.63z
			 M515.3,229.29c-4.14,0-8.62,0.64-13.4,1.92c-10.76,2.88-20.25,8.54-28.2,16.84c-7.98,8.33-13.73,18.42-17.1,29.98
			c-3.38,11.58-3.98,23.66-1.77,35.91c1.43,7.96,4.22,14.78,8.29,20.27c4.01,5.42,9.43,9.15,16.12,11.09l0,0
			c6.74,1.96,14.73,1.74,23.74-0.67c10.76-2.88,20.22-8.45,28.09-16.57c7.89-8.14,13.59-18.08,16.93-29.53
			c3.34-11.46,3.92-23.48,1.72-35.74c-1.47-8.16-4.31-15.13-8.45-20.71c-4.08-5.51-9.48-9.34-16.03-11.37
			C522.19,229.77,518.87,229.29,515.3,229.29z M497.02,326.1c-4.25,0-7.94-1.4-11.01-4.18c-4.32-3.91-7.19-9.69-8.53-17.19
			c-1.45-8.07-1.36-16.03,0.26-23.67c1.63-7.67,4.54-14.3,8.64-19.72c4.18-5.51,9.24-9.1,15.03-10.64
			c6.91-1.85,12.67-0.72,17.08,3.35c4.26,3.93,7.12,9.82,8.5,17.51c1.45,8.06,1.39,16.02-0.18,23.64
			c-1.57,7.66-4.44,14.23-8.52,19.54l0,0c-4.14,5.39-9.24,8.93-15.13,10.5C501,325.81,498.95,326.1,497.02,326.1z M507.53,252.83
			c-1.66,0-3.44,0.26-5.36,0.77c-5.14,1.37-9.65,4.59-13.42,9.56c-3.84,5.06-6.56,11.29-8.1,18.53c-1.54,7.25-1.62,14.83-0.24,22.51
			c1.23,6.83,3.78,12.04,7.6,15.5c3.72,3.37,8.41,4.23,14.36,2.64c5.24-1.4,9.79-4.57,13.53-9.43l0,0
			c3.8-4.94,6.48-11.11,7.96-18.31c1.49-7.25,1.54-14.82,0.16-22.5c-1.26-7.03-3.81-12.36-7.58-15.84
			C513.96,253.96,511.02,252.83,507.53,252.83z"/>
	</g>
	<g>
		<path d="M559.53,216.52l28.12-7.51l40.89,63.56l0.47-0.12l-1.12-74.19l24.08-6.43l1.7,112.81l-28.43,7.6l-40.42-60.94l-0.62,0.17
			l1.11,71.44l-23.92,6.39L559.53,216.52z"/>
		<path d="M559.92,331.23l-1.91-115.86l30.31-8.1l39.12,60.81l-1.07-70.98l27.07-7.23l1.75,115.9l-30.6,8.18l-38.82-58.54
			l1.07,68.62L559.92,331.23z M561.05,217.67l1.81,109.67l20.94-5.59l-1.11-71.44l2.79-0.75l40.42,60.94l26.26-7.01l-1.66-109.71
			l-21.09,5.63l1.12,74.19l-2.65,0.71l-40.89-63.56L561.05,217.67z"/>
	</g>
	<g>
		<path d="M685.56,292.72c-6.03-1.51-10.8-4.36-14.31-8.54c-3.52-4.17-5.79-9.14-6.83-14.9c-0.28-1.54-0.43-2.69-0.45-3.43
			l-0.07-1.28l26.26-7.01l0.19,1.08c0.72,4.01,2.4,7.19,5.05,9.56c2.65,2.36,6.51,2.87,11.59,1.51c4.76-1.27,8.53-3.71,11.31-7.3
			c2.77-3.59,3.8-7.4,3.08-11.41c-0.5-2.77-1.91-4.74-4.23-5.9c-2.32-1.16-4.99-1.66-8-1.5l-12.41,0.73
			c-6.35,0.3-12.54-0.74-18.55-3.12c-6.02-2.38-9.77-7.73-11.27-16.05c-1.29-7.19-0.57-14.17,2.18-20.94
			c2.75-6.76,7.17-12.66,13.27-17.68c6.1-5.02,13.34-8.65,21.73-10.9c8.28-2.21,15.4-2.47,21.35-0.78c5.95,1.7,10.62,4.73,14.01,9.1
			c3.39,4.37,5.6,9.44,6.64,15.19l0.14,0.77l-27.5,7.35l-0.08-0.46c-0.63-3.49-2.07-6.37-4.32-8.62c-2.25-2.25-5.86-2.72-10.83-1.39
			c-4.25,1.14-7.59,3.4-10.01,6.8c-2.43,3.4-3.29,7.05-2.59,10.95c0.91,5.04,5.34,7.35,13.3,6.95l12.62-0.46
			c7.34-0.24,13.78,1.03,19.33,3.8c5.55,2.77,8.97,7.81,10.29,15.11c1.31,7.3,0.46,14.5-2.55,21.6
			c-3.01,7.11-7.78,13.34-14.31,18.69c-6.53,5.35-14.09,9.18-22.69,11.47C698.68,293.9,691.58,294.24,685.56,292.72z"/>
		<path d="M693.48,295.15c-2.95,0-5.72-0.32-8.29-0.97l0,0c-6.31-1.58-11.39-4.62-15.1-9.02c-3.67-4.36-6.08-9.61-7.16-15.6
			c-0.29-1.64-0.45-2.83-0.48-3.65l-0.13-2.46l29.01-7.75l0.48,2.68c0.67,3.71,2.16,6.55,4.58,8.7c2.23,1.99,5.66,2.39,10.2,1.18
			c4.42-1.18,7.95-3.46,10.5-6.77c2.53-3.27,3.44-6.62,2.79-10.23c-0.41-2.3-1.53-3.88-3.43-4.82c-2.08-1.03-4.52-1.49-7.26-1.34
			l-12.4,0.73c-6.55,0.31-13-0.78-19.19-3.22c-6.5-2.57-10.61-8.35-12.19-17.18c-1.34-7.44-0.57-14.77,2.27-21.77
			c2.83-6.97,7.44-13.12,13.7-18.28c6.24-5.14,13.74-8.9,22.3-11.19c8.51-2.27,15.96-2.53,22.15-0.77
			c6.24,1.78,11.21,5.02,14.78,9.62c3.53,4.55,5.86,9.88,6.93,15.85l0.38,2.13l-30.41,8.12l-0.37-2.07c-0.57-3.17-1.88-5.8-3.9-7.83
			c-1.83-1.84-4.99-2.17-9.38-1c-3.94,1.05-6.94,3.09-9.18,6.22c-2.2,3.08-2.97,6.29-2.33,9.81c0.28,1.55,1.14,6.26,11.74,5.72
			l12.64-0.46c7.56-0.25,14.31,1.09,20.05,3.96c5.97,2.98,9.7,8.43,11.09,16.18c1.36,7.56,0.47,15.11-2.65,22.46
			c-3.09,7.3-8.05,13.78-14.74,19.26c-6.66,5.46-14.49,9.42-23.25,11.76C702.31,294.49,697.71,295.15,693.48,295.15z M665.46,265.72
			l0,0.06c0.02,0.69,0.17,1.77,0.43,3.25c0.98,5.47,3.17,10.25,6.5,14.2c3.3,3.91,7.85,6.62,13.53,8.05l0,0
			c5.75,1.45,12.66,1.11,20.56-1c8.35-2.23,15.79-5.99,22.12-11.18c6.31-5.17,10.97-11.26,13.88-18.11
			c2.88-6.8,3.71-13.78,2.46-20.75c-1.23-6.87-4.33-11.46-9.48-14.03c-5.29-2.65-11.56-3.87-18.61-3.65L704.24,223
			c-8.78,0.44-13.77-2.31-14.83-8.18c-0.77-4.3,0.19-8.37,2.85-12.09c2.62-3.67,6.27-6.15,10.85-7.37c5.5-1.47,9.63-0.87,12.28,1.78
			c2.21,2.22,3.72,5,4.5,8.28l24.62-6.58c-1.03-5.25-3.13-9.94-6.24-13.95c-3.17-4.09-7.62-6.98-13.23-8.58
			c-5.66-1.61-12.57-1.35-20.55,0.78c-8.14,2.17-15.26,5.74-21.17,10.6c-5.88,4.84-10.19,10.59-12.83,17.09
			c-2.62,6.47-3.33,13.23-2.09,20.11c1.41,7.85,4.79,12.73,10.34,14.92c5.79,2.29,11.83,3.31,17.93,3.02l12.39-0.73
			c3.27-0.17,6.21,0.38,8.76,1.65c2.76,1.37,4.46,3.72,5.04,6.97c0.79,4.43-0.34,8.66-3.37,12.59c-2.96,3.84-7.04,6.48-12.11,7.84
			c-5.57,1.49-9.94,0.87-12.97-1.84c-2.77-2.47-4.6-5.8-5.43-9.89L665.46,265.72z"/>
	</g>
</g>
<g>
	<path d="M84.68,592.19c-0.43,0-0.85-0.14-1.21-0.4c-0.49-0.37-0.78-0.95-0.79-1.56l-1.83-112.61c-0.02-0.92,0.6-1.73,1.48-1.96
		l24.39-6.52c0.59-0.16,1.23-0.03,1.72,0.34c0.49,0.37,0.78,0.95,0.79,1.57l1.29,88.21l43.35-11.58c0.59-0.16,1.23-0.04,1.72,0.34
		c0.49,0.37,0.78,0.95,0.79,1.56l0.35,21.88c0.01,0.92-0.6,1.73-1.48,1.96L85.2,592.13C85.03,592.17,84.85,592.19,84.68,592.19z
		 M84.88,479.11l1.76,108.49l66.08-17.65l-0.28-17.76l-43.36,11.58c-0.59,0.16-1.23,0.03-1.72-0.34c-0.49-0.37-0.78-0.95-0.79-1.57
		l-1.29-88.21L84.88,479.11z"/>
	<path d="M189.15,563.95c-3.84,0-7.44-0.49-10.79-1.46c-7.44-2.16-13.48-6.33-17.96-12.37c-4.39-5.93-7.39-13.24-8.92-21.74
		c-2.3-12.79-1.67-25.41,1.86-37.51c3.53-12.11,9.57-22.68,17.94-31.42c8.4-8.77,18.43-14.76,29.82-17.8
		c9.54-2.55,18.05-2.7,25.28-0.46c7.28,2.26,13.27,6.51,17.81,12.63c4.46,6.02,7.52,13.48,9.08,22.18
		c2.3,12.79,1.69,25.35-1.81,37.33c-3.5,12-9.48,22.43-17.78,30.98c-8.32,8.58-18.31,14.48-29.7,17.52
		C198.72,563.25,193.76,563.95,189.15,563.95z M215.42,443.62c-4.1,0-8.54,0.63-13.28,1.9c-10.67,2.85-20.08,8.47-27.97,16.7
		c-7.92,8.27-13.63,18.28-16.98,29.77c-3.36,11.5-3.95,23.5-1.76,35.68c1.42,7.88,4.17,14.63,8.2,20.06
		c3.94,5.33,9.28,9,15.86,10.91c0,0,0,0,0,0c6.65,1.94,14.55,1.71,23.47-0.67c10.68-2.85,20.05-8.38,27.86-16.44
		c7.84-8.08,13.49-17.95,16.81-29.32c3.32-11.39,3.9-23.33,1.71-35.51c-1.45-8.08-4.26-14.98-8.36-20.5
		c-4.02-5.42-9.33-9.19-15.78-11.19C222.2,444.09,218.93,443.62,215.42,443.62z M197.12,540.43c-4.37,0-8.17-1.44-11.34-4.31
		c-4.4-3.99-7.32-9.87-8.69-17.47c-1.46-8.13-1.37-16.16,0.26-23.86c1.64-7.74,4.58-14.44,8.73-19.91c4.25-5.61,9.4-9.25,15.3-10.83
		c7.09-1.9,13-0.73,17.55,3.46c4.34,4,7.25,9.99,8.66,17.79c1.46,8.13,1.4,16.14-0.18,23.83c-1.59,7.73-4.49,14.37-8.61,19.74h0
		c-4.21,5.48-9.39,9.08-15.4,10.68C201.19,540.13,199.1,540.43,197.12,540.43z M207.63,467.16c-1.61,0-3.35,0.25-5.22,0.75
		c-5.02,1.34-9.45,4.5-13.14,9.38c-3.79,5-6.49,11.17-8.01,18.33c-1.53,7.19-1.61,14.7-0.24,22.32c1.21,6.72,3.71,11.84,7.44,15.22
		c3.58,3.25,8.13,4.07,13.9,2.53c5.13-1.37,9.59-4.48,13.26-9.25c0,0,0,0,0,0c3.75-4.88,6.4-10.98,7.87-18.11
		c1.48-7.18,1.53-14.69,0.16-22.31c-1.24-6.93-3.74-12.16-7.43-15.56C213.84,468.25,211,467.16,207.63,467.16z"/>
	<path d="M298.36,534.78c-3.84,0-7.44-0.49-10.79-1.46c-7.44-2.17-13.48-6.33-17.96-12.37c-4.39-5.93-7.39-13.24-8.92-21.74
		c-2.3-12.79-1.67-25.41,1.86-37.51c3.53-12.11,9.57-22.68,17.94-31.42c8.4-8.77,18.43-14.76,29.82-17.8
		c9.54-2.55,18.05-2.7,25.28-0.46c7.28,2.26,13.27,6.51,17.81,12.63c4.46,6.02,7.52,13.48,9.08,22.18
		c2.3,12.79,1.69,25.35-1.81,37.33c-3.5,12-9.48,22.43-17.78,30.98c-8.32,8.58-18.31,14.48-29.7,17.52
		C307.94,534.07,302.98,534.78,298.36,534.78z M324.63,414.44c-4.1,0-8.54,0.63-13.28,1.9c-10.67,2.85-20.08,8.47-27.96,16.7
		c-7.92,8.27-13.63,18.29-16.99,29.77c-3.36,11.5-3.95,23.5-1.76,35.68c1.42,7.88,4.17,14.63,8.2,20.06
		c3.94,5.33,9.27,9,15.86,10.91c0,0,0,0,0,0c6.65,1.94,14.55,1.71,23.47-0.67c10.68-2.85,20.05-8.38,27.86-16.44
		c7.84-8.08,13.49-17.95,16.81-29.32c3.32-11.39,3.9-23.33,1.71-35.51c-1.45-8.08-4.26-14.98-8.36-20.5
		c-4.02-5.42-9.33-9.19-15.78-11.2C331.41,414.91,328.15,414.44,324.63,414.44z M306.33,511.25c-4.37,0-8.17-1.44-11.34-4.31
		c-4.4-3.99-7.32-9.87-8.69-17.47c-1.46-8.13-1.37-16.16,0.26-23.86c1.64-7.74,4.58-14.44,8.73-19.91
		c4.25-5.61,9.39-9.25,15.3-10.83c7.09-1.89,13-0.73,17.55,3.46c4.34,4,7.25,9.99,8.66,17.79c1.46,8.12,1.4,16.14-0.18,23.83
		c-1.59,7.73-4.49,14.38-8.62,19.74c-4.21,5.48-9.39,9.08-15.4,10.68C310.4,510.95,308.31,511.25,306.33,511.25z M316.84,437.98
		c-1.61,0-3.35,0.25-5.22,0.75c-5.03,1.34-9.45,4.5-13.15,9.38c-3.79,5-6.49,11.17-8.01,18.33c-1.53,7.19-1.6,14.7-0.24,22.32
		c1.21,6.72,3.71,11.84,7.44,15.22c3.58,3.25,8.13,4.07,13.9,2.53c5.13-1.37,9.6-4.48,13.26-9.25c0,0,0,0,0,0
		c3.75-4.88,6.4-10.97,7.87-18.11c1.48-7.18,1.53-14.69,0.16-22.31c-1.24-6.92-3.74-12.16-7.43-15.56
		C323.05,439.07,320.21,437.98,316.84,437.98z"/>
	<path d="M397.48,508.43c-2.99,0-5.8-0.33-8.41-0.98c-6.41-1.61-11.58-4.7-15.36-9.19c-3.73-4.42-6.17-9.75-7.27-15.83
		c-0.3-1.66-0.46-2.88-0.48-3.72l-0.06-1.24c-0.05-0.94,0.57-1.79,1.48-2.04l26.25-7.01c0.54-0.14,1.12-0.05,1.59,0.24
		c0.47,0.3,0.8,0.78,0.9,1.33l0.19,1.08c0.65,3.59,2.09,6.34,4.42,8.42c2.13,1.9,5.32,2.25,9.74,1.07
		c4.37-1.17,7.72-3.32,10.24-6.59c2.44-3.16,3.32-6.37,2.7-9.83c-0.39-2.17-1.39-3.58-3.16-4.46c-2-1-4.36-1.42-7.01-1.29
		l-12.39,0.73c-6.63,0.32-13.15-0.78-19.4-3.26c-6.68-2.64-10.88-8.55-12.5-17.56c-1.35-7.54-0.58-14.96,2.3-22.05
		c2.86-7.05,7.52-13.26,13.85-18.47c6.29-5.18,13.86-8.98,22.49-11.28c8.6-2.3,16.14-2.56,22.42-0.77c6.34,1.81,11.4,5.11,15.04,9.8
		c3.57,4.61,5.94,10.01,7.03,16.06l0.14,0.77c0.18,1.02-0.45,2.02-1.45,2.29l-27.5,7.35c-0.54,0.14-1.12,0.06-1.59-0.25
		c-0.47-0.3-0.8-0.78-0.9-1.33l-0.08-0.46c-0.56-3.11-1.79-5.58-3.76-7.56c-1.7-1.7-4.7-1.99-8.9-0.87
		c-3.82,1.02-6.73,2.99-8.9,6.03c-2.12,2.97-2.86,6.05-2.25,9.44c0.26,1.44,1.05,5.82,11.23,5.31l12.64-0.46
		c7.66-0.24,14.47,1.1,20.29,4.01c6.12,3.06,9.94,8.62,11.36,16.54c1.38,7.65,0.47,15.3-2.68,22.74
		c-3.13,7.38-8.13,13.92-14.88,19.45c-6.72,5.51-14.6,9.5-23.44,11.86C406.4,507.77,401.75,508.43,397.48,508.43z M369.98,478.88
		c0.05,0.67,0.19,1.62,0.41,2.84c0.97,5.38,3.12,10.08,6.39,13.96c3.23,3.83,7.69,6.49,13.27,7.89c0,0,0,0,0,0
		c5.66,1.42,12.49,1.09,20.31-1c8.28-2.21,15.66-5.94,21.93-11.09c6.24-5.12,10.86-11.15,13.73-17.92
		c2.84-6.71,3.66-13.6,2.42-20.47c-1.2-6.7-4.22-11.17-9.21-13.67c-5.22-2.61-11.4-3.82-18.37-3.59l-12.61,0.46
		c-11.3,0.56-14.58-4.36-15.34-8.59c-0.8-4.44,0.19-8.63,2.93-12.47c2.69-3.77,6.44-6.31,11.12-7.57c5.68-1.52,9.98-0.88,12.76,1.91
		c2.17,2.17,3.68,4.86,4.51,8.02l23.67-6.32c-1.05-4.99-3.08-9.45-6.05-13.28c-3.11-4.01-7.47-6.83-12.98-8.4
		c-5.57-1.59-12.4-1.32-20.29,0.78c-8.07,2.16-15.13,5.69-20.98,10.51c-5.81,4.78-10.08,10.47-12.69,16.89
		c-2.59,6.38-3.28,13.05-2.07,19.84c1.38,7.67,4.66,12.42,10.04,14.55c5.73,2.26,11.69,3.26,17.72,2.98l12.38-0.73
		c3.35-0.18,6.38,0.4,9.01,1.7c2.91,1.45,4.7,3.92,5.31,7.33c0.82,4.57-0.35,8.94-3.47,12.98c-3.03,3.93-7.2,6.63-12.37,8.01
		c-5.75,1.54-10.26,0.88-13.43-1.95c-2.74-2.44-4.58-5.68-5.48-9.64L369.98,478.88z"/>
	<path d="M459.71,492c-0.43,0-0.86-0.14-1.21-0.4c-0.49-0.37-0.78-0.95-0.79-1.57l-1.67-112.65c-0.01-0.92,0.6-1.73,1.48-1.96
		L531,355.78c0.59-0.16,1.22-0.04,1.72,0.33c0.49,0.37,0.79,0.94,0.8,1.55l0.5,21.84c0.02,0.92-0.59,1.74-1.48,1.98l-47.74,12.75
		l0.33,19.85l38.7-10.34c0.6-0.16,1.23-0.04,1.72,0.34c0.49,0.37,0.78,0.95,0.79,1.57l0.24,19.49c0.01,0.92-0.6,1.72-1.48,1.96
		l-39.67,10.6l0.28,21.31l46.61-12.45c0.6-0.16,1.23-0.04,1.72,0.34c0.49,0.37,0.79,0.95,0.79,1.56l0.35,21.88
		c0.01,0.92-0.6,1.73-1.48,1.96l-73.48,19.63C460.05,491.98,459.88,492,459.71,492z M460.06,378.88l1.61,108.53l69.5-18.57
		l-0.28-17.76l-46.62,12.45c-0.6,0.16-1.23,0.03-1.72-0.34c-0.49-0.37-0.78-0.95-0.79-1.57l-0.34-25.44
		c-0.01-0.92,0.6-1.72,1.48-1.96l39.67-10.6l-0.19-15.36l-38.69,10.34c-0.6,0.16-1.23,0.03-1.72-0.34
		c-0.49-0.37-0.78-0.95-0.79-1.56l-0.4-23.97c-0.01-0.92,0.6-1.73,1.48-1.97l47.73-12.75l-0.41-17.72L460.06,378.88z"/>
	<path d="M541.42,470.17c-0.43,0-0.85-0.14-1.21-0.4c-0.49-0.37-0.78-0.95-0.79-1.56l-1.83-112.61c-0.01-0.92,0.6-1.73,1.48-1.96
		l24.39-6.52c0.6-0.16,1.23-0.04,1.72,0.34c0.49,0.37,0.79,0.95,0.79,1.57l1.29,88.21l43.35-11.58c0.6-0.16,1.23-0.04,1.72,0.34
		c0.49,0.37,0.79,0.95,0.79,1.56l0.35,21.88c0.01,0.92-0.6,1.73-1.48,1.96l-70.07,18.72C541.77,470.15,541.6,470.17,541.42,470.17z
		 M541.62,357.09l1.76,108.49l66.08-17.65l-0.28-17.76l-43.35,11.58c-0.6,0.16-1.23,0.03-1.72-0.34c-0.49-0.37-0.79-0.95-0.79-1.57
		l-1.29-88.21L541.62,357.09z"/>
	<path d="M628.89,446.8c-0.43,0-0.86-0.14-1.21-0.41c-0.49-0.37-0.79-0.95-0.79-1.57l-0.55-37.95l-36.59-64.19
		c-0.31-0.54-0.35-1.19-0.11-1.76c0.24-0.57,0.73-1,1.33-1.16l25.17-6.72c0.9-0.24,1.85,0.17,2.29,1l21.18,40.23l20.24-52.06
		c0.23-0.59,0.73-1.04,1.35-1.21l25.32-6.77c0.73-0.2,1.52,0.04,2.02,0.61c0.5,0.57,0.63,1.38,0.34,2.08l-34.46,83.35l0.55,38.05
		c0.01,0.92-0.6,1.72-1.48,1.96l-24.08,6.43C629.23,446.78,629.06,446.8,628.89,446.8z M594.5,342.96l35.56,62.39
		c0.17,0.29,0.26,0.62,0.26,0.96l0.52,35.9l20.1-5.37l-0.54-36.91c0-0.27,0.05-0.54,0.15-0.79l33.07-79.99l-20.43,5.46l-21.01,54.05
		c-0.23,0.59-0.73,1.04-1.35,1.21l-0.93,0.25c-0.9,0.24-1.85-0.17-2.29-1l-22-41.79L594.5,342.96z"/>
</g>
<g>
	<path d="M84.93,725.74c-0.43,0-0.85-0.14-1.21-0.4c-0.49-0.37-0.78-0.95-0.79-1.56L81.1,611.16c-0.02-0.92,0.6-1.73,1.48-1.96
		l24.24-6.47c0.6-0.16,1.23-0.04,1.72,0.34c0.49,0.37,0.79,0.95,0.8,1.56l0.78,43.76l36.88-9.85l-0.65-44.79
		c-0.01-0.92,0.6-1.72,1.48-1.96l24.39-6.52c0.59-0.16,1.23-0.03,1.72,0.34c0.49,0.37,0.78,0.95,0.79,1.57l1.68,112.65
		c0.01,0.92-0.6,1.72-1.48,1.96l-24.39,6.52c-0.59,0.16-1.23,0.04-1.72-0.34c-0.49-0.37-0.78-0.95-0.79-1.56l-0.69-44.1l-36.88,9.85
		l0.71,45.1c0.01,0.92-0.6,1.73-1.48,1.96l-24.24,6.48C85.28,725.72,85.1,725.74,84.93,725.74z M85.12,612.66l1.76,108.49
		l20.25-5.41l-0.71-45.1c-0.01-0.92,0.6-1.73,1.48-1.96l40.86-10.92c0.6-0.16,1.23-0.04,1.72,0.34c0.49,0.37,0.78,0.95,0.79,1.56
		l0.69,44.1l20.41-5.45l-1.61-108.53l-20.41,5.45l0.65,44.79c0.01,0.92-0.6,1.72-1.48,1.96l-40.86,10.92
		c-0.59,0.16-1.23,0.04-1.72-0.34c-0.49-0.37-0.79-0.95-0.8-1.56l-0.78-43.76L85.12,612.66z"/>
	<path d="M182.65,699.64c-0.43,0-0.85-0.14-1.21-0.4c-0.49-0.37-0.78-0.95-0.79-1.57l-1.68-112.65c-0.01-0.92,0.6-1.72,1.48-1.96
		l73.48-19.63c0.59-0.16,1.23-0.04,1.72,0.33c0.49,0.37,0.79,0.94,0.8,1.55l0.5,21.84c0.02,0.92-0.59,1.74-1.48,1.98l-47.74,12.75
		l0.33,19.85l38.7-10.34c0.6-0.16,1.23-0.03,1.72,0.34c0.49,0.37,0.78,0.95,0.79,1.57l0.24,19.49c0.01,0.92-0.6,1.72-1.48,1.96
		l-39.67,10.6l0.28,21.31l46.61-12.45c0.59-0.16,1.23-0.04,1.72,0.34c0.49,0.37,0.78,0.95,0.79,1.56l0.35,21.88
		c0.01,0.92-0.6,1.73-1.48,1.96l-73.48,19.63C183,699.61,182.82,699.64,182.65,699.64z M183,586.51l1.61,108.53l69.5-18.57
		l-0.28-17.76l-46.62,12.46c-0.59,0.16-1.23,0.03-1.72-0.34c-0.49-0.37-0.78-0.95-0.79-1.57l-0.34-25.44
		c-0.01-0.92,0.6-1.72,1.48-1.96l39.67-10.6l-0.19-15.36l-38.69,10.34c-0.59,0.16-1.23,0.04-1.72-0.34
		c-0.49-0.37-0.78-0.95-0.79-1.56l-0.4-23.97c-0.02-0.92,0.6-1.73,1.48-1.97l47.73-12.75l-0.41-17.72L183,586.51z"/>
	<path d="M264.37,677.8c-0.43,0-0.85-0.14-1.21-0.4c-0.49-0.37-0.78-0.95-0.79-1.56l-1.83-112.61c-0.02-0.92,0.6-1.73,1.48-1.96
		l24.39-6.52c0.59-0.16,1.23-0.03,1.72,0.34c0.49,0.37,0.78,0.95,0.79,1.57l1.29,88.21l43.35-11.58c0.59-0.16,1.23-0.04,1.72,0.34
		c0.49,0.37,0.78,0.95,0.79,1.56l0.35,21.88c0.01,0.92-0.6,1.73-1.48,1.96l-70.07,18.72C264.71,677.78,264.54,677.8,264.37,677.8z
		 M264.56,564.72l1.76,108.49l66.08-17.65l-0.28-17.76l-43.35,11.58c-0.59,0.16-1.23,0.03-1.72-0.34c-0.49-0.37-0.78-0.95-0.79-1.57
		l-1.29-88.21L264.56,564.72z"/>
	<path d="M341.24,657.11c-0.43,0-0.85-0.14-1.21-0.4c-0.49-0.37-0.78-0.95-0.79-1.56l-1.83-112.61c-0.02-0.92,0.6-1.73,1.48-1.96
		l43.03-11.5c13.12-3.51,24.4-2.44,33.51,3.17c9.13,5.62,15,15.36,17.43,28.93c2.3,12.79,1.75,25.22-1.63,36.96
		c-3.38,11.76-9.22,21.96-17.34,30.31c-8.14,8.37-18.09,14.17-29.58,17.24l-42.57,11.37C341.58,657.08,341.41,657.11,341.24,657.11z
		 M341.43,544.02l1.76,108.49l40.09-10.71c10.78-2.88,20.12-8.32,27.75-16.17c7.66-7.87,13.16-17.5,16.36-28.62
		c3.21-11.14,3.72-22.96,1.54-35.14c-2.23-12.41-7.47-21.23-15.59-26.23c-8.14-5.01-18.36-5.92-30.39-2.71L341.43,544.02z
		 M364.24,628.34c-0.43,0-0.86-0.14-1.21-0.41c-0.49-0.37-0.78-0.95-0.79-1.57l-0.97-67.92c-0.01-0.92,0.6-1.72,1.48-1.96
		l14.76-3.94c7.36-1.97,13.76-1.75,19.02,0.64c5.46,2.49,9.04,8.29,10.65,17.26c2.51,13.95,1.26,25.79-3.72,35.19
		c-5.03,9.5-13.09,15.79-23.96,18.7l0,0l-14.76,3.94C364.58,628.32,364.41,628.34,364.24,628.34z M365.29,559.95l0.91,63.8
		l12.28-3.28c9.89-2.64,16.9-8.1,21.46-16.7c4.54-8.59,5.66-19.56,3.32-32.61c-1.36-7.6-4.18-12.42-8.37-14.33
		c-4.39-2-9.89-2.14-16.33-0.42L365.29,559.95z M379,622.4L379,622.4L379,622.4z"/>
</g>
<g>
	<g>
		<path d="M614.91,46.78c0.69,0.31,1.67,0.68,2.85,0.75c12.54,0.77,23.41,5.93,33.23,15.79c11.15,11.19,16.27,25.6,16.1,45.33
			c-0.06,7.24,0.08,14.56,0.22,21.64c0.08,4,0.16,8.13,0.2,12.18c0.05,4.33,0.03,8.63,0.02,12.79c-0.01,1.8-0.01,3.56-0.01,5.25
			c0,1.62,0.79,3.15,2.12,4.08c0.86,0.6,1.86,0.92,2.88,0.92c0.56,0,1.13-0.09,1.67-0.29c3.45-1.23,6.82-2.53,10.08-3.79
			c6.92-2.68,13.46-5.22,20.15-6.77c4.45-1.03,8.89-1.55,13.2-1.55c22.13,0,39.79,13.6,46.09,35.49c2.94,10.21,1.7,17.4-4.03,23.29
			c-1.45,1.49-1.82,3.72-0.95,5.6c7.62,16.32,9.25,27.63,5.84,40.32c-6.44,23.93-22.11,39.94-47.9,48.93l-0.37,0.13
			c-4.45,1.55-11.18,3.89-10.89,13.12c-0.05,0.41-0.53,1.45-0.86,2.15c-0.24,0.51-0.49,1.04-0.72,1.61
			c-3.18,7.73-6.38,15.45-9.57,23.18c-6.83,16.55-13.9,33.66-20.79,50.52c-1.11,2.71-1.73,5.81-1.74,8.73
			c-0.03,5.66,0.04,11.38,0.1,16.92c0.05,3.97,0.1,8.08,0.11,12.1c0.03,10.66-4.72,16.89-15.39,20.21
			c-7.72,2.4-15.77,4.33-23.56,6.2c-6.13,1.47-12.47,2.99-18.7,4.75c-49.52,13.96-99.55,27-147.93,39.6
			c-1.01,0.26-2.22,0.39-3.68,0.39c-1.58,0-3.25-0.14-5.03-0.3c-1.88-0.16-3.83-0.33-5.81-0.33l-0.38,0l-0.57,0
			c-2.06,0-4.25,0.16-6.26,1.35c-2.81,1.66-5.42,3.49-7.95,5.26c-0.93,0.65-1.86,1.3-2.77,1.93c-1.11,0.76-1.87,1.93-2.1,3.25
			c-0.24,1.32,0.07,2.68,0.85,3.78c1.08,1.52,2.2,3,3.29,4.43c2.31,3.05,4.5,5.92,6.17,8.98c8.42,15.4,11.08,33.41,8.13,55.06
			c-4.65,34.11-29.11,61.89-62.32,70.78c-7.1,1.9-14.19,3.82-21.28,5.74c-9.38,2.54-19.07,5.16-28.61,7.69
			c-10.54,2.8-21.27,5.62-31.65,8.34c-13.53,3.55-27.52,7.23-41.27,10.91c-24.89,6.66-50.19,13.49-74.65,20.1
			c-11.45,3.09-22.9,6.18-34.35,9.27c-2.14,0.58-4.22,0.87-6.16,0.87c-4.31,0-8.16-1.41-11.79-4.3c-0.82-0.65-1.62-1.08-2.33-1.45
			c-0.23-0.12-0.48-0.25-0.73-0.4c-0.77-0.44-1.63-0.67-2.49-0.67c-0.62,0-1.24,0.11-1.82,0.34c-1.41,0.55-2.5,1.72-2.95,3.17
			c-2.46,7.88-7.53,12.35-16.47,14.51c-5.72,1.38-11.44,3.02-16.96,4.59c-2.24,0.64-4.47,1.28-6.71,1.9h-4.83
			c-0.52-0.25-1.16-0.53-1.9-0.73c-9.24-2.55-14.44-9.07-14.64-18.38c-0.46-21.24-0.81-42.84-1.14-63.73l-0.16-9.84
			c-0.05-3.31-0.02-6.73,0.02-10.03c0.07-6.95,0.15-14.13-0.58-21.26c-0.51-4.98,0.14-9.95,0.83-15.21
			c0.64-4.86,1.3-9.89,1.06-15.22c-0.91-20.2-1.15-40.81-1.38-60.75c-0.17-14.61-0.34-29.71-0.78-44.58
			c-0.39-13.13,3.74-20.15,14.23-24.22c1.52-0.59,2.66-1.89,3.05-3.48c0.39-1.59-0.03-3.26-1.11-4.49
			c-8.38-9.5-13.59-20.09-15.95-32.38c-0.63-3.31-1.19-6.73-1.73-10.04c-0.23-1.42-0.46-2.84-0.7-4.26v-11.17
			c0.02-0.05,0.03-0.09,0.05-0.14c0.29-0.86,0.65-1.93,0.77-3.22c1.6-17.19,7.39-32.97,17.21-46.88c1.26-1.79,2.63-3.53,4.08-5.38
			c0.7-0.89,1.41-1.8,2.13-2.73c0.84-1.1,1.19-2.49,0.97-3.86c-0.22-1.36-1-2.58-2.15-3.35c-12.27-8.22-19.39-19.56-21.79-34.69
			c-1.38-8.7,0.02-14.58,4.55-19.06c4.92-4.87,2.79-9.63,1.89-11.67c-4.66-10.46-5.83-21.46-3.49-32.69
			c4.29-20.63,17.19-33,27.25-39.74c12.02-8.06,27.32-12.86,40.93-12.86c2.7,0,5.29,0.19,7.7,0.57c1.13,0.18,2.14,0.26,3.09,0.26
			c3.52,0,6.51-1.18,9.42-3.7c2.46-2.13,5.81-3.88,9.19-4.8c21.44-5.83,43.28-11.66,64.39-17.3c19.74-5.27,40.14-10.72,60.2-16.16
			c8.65-2.35,15.73-3.44,22.3-3.44c9.1,0,17.09,2.19,24.45,6.7c0.81,0.5,1.72,0.74,2.61,0.74c1.42,0,2.83-0.61,3.81-1.76
			c18.89-22.2,39.39-33,62.68-33c7.04,0,14.48,1,22.11,2.98c0.42,0.11,0.84,0.16,1.26,0.16c2.01,0,3.88-1.22,4.65-3.17
			c2.56-6.5,7.89-10.21,17.8-12.41c5.7-1.26,11.36-2.86,16.83-4.4c1.65-0.47,3.31-0.93,4.96-1.39c2.11-0.58,4.17-0.88,6.11-0.88
			c4.27,0,8.17,1.4,11.91,4.28c0.69,0.53,1.36,0.89,1.95,1.21c0.2,0.11,0.41,0.22,0.63,0.35c0.77,0.45,1.64,0.68,2.51,0.68
			c0.58,0,1.17-0.1,1.73-0.31c1.4-0.52,2.49-1.63,2.99-3.04c2.77-7.92,8.09-12.42,16.74-14.18c5.08-1.04,10.21-2.4,15.23-4.06
			c4.14-1.37,7.66-2.03,10.77-2.03c4.08,0,7.67,1.16,11,3.54c0.88,0.63,1.9,0.94,2.91,0.94c1.27,0,2.53-0.48,3.49-1.42
			c10.54-10.26,22.18-16.89,35.57-20.27c3.65-0.92,7.37-1.55,11.31-2.21c1.63-0.27,3.31-0.56,4.99-0.86H614.91 M615.96,41.78
			c-1.58,0-3.17,0-4.75,0c-5.69,1.06-11.46,1.81-17.06,3.23c-14.42,3.64-26.9,10.9-37.83,21.54c-4.49-3.22-9.14-4.47-13.91-4.47
			c-4.04,0-8.16,0.9-12.33,2.28c-4.8,1.58-9.71,2.9-14.66,3.91c-9.96,2.03-16.95,7.43-20.46,17.43c-0.81-0.47-1.48-0.77-2.04-1.2
			c-4.65-3.58-9.63-5.32-14.96-5.32c-2.41,0-4.89,0.36-7.44,1.06c-7.16,1.98-14.29,4.12-21.54,5.73
			c-9.58,2.12-17.66,6.05-21.37,15.46c-8.19-2.12-15.96-3.14-23.36-3.14c-26.31,0-47.87,12.88-66.48,34.76
			c-8.77-5.38-17.81-7.44-27.06-7.44c-7.75,0-15.63,1.45-23.61,3.61c-41.5,11.26-83.1,22.18-124.59,33.46
			c-3.99,1.08-8.06,3.16-11.16,5.85c-2.09,1.81-3.95,2.48-6.14,2.48c-0.73,0-1.5-0.07-2.32-0.2c-2.67-0.42-5.5-0.63-8.47-0.63
			c-27.22,0-64.99,17.7-73.08,56.59c-2.55,12.28-1.28,24.28,3.82,35.74c1.1,2.48,1.32,3.95-0.84,6.08
			c-6.58,6.51-7.34,14.75-5.97,23.4c2.53,15.94,10.1,28.79,23.95,38.06c-2.2,2.86-4.37,5.49-6.33,8.27
			c-10.45,14.8-16.43,31.26-18.1,49.3c-0.1,1.03-0.55,2.03-0.84,3.05c0,4.12,0,8.24,0,12.36c0.83,4.94,1.57,9.9,2.51,14.82
			c2.49,12.98,8.08,24.5,17.11,34.74c-13.66,5.3-17.82,15.29-17.42,29.02c1.03,35.13,0.58,70.31,2.16,105.41
			c0.47,10.48-2.94,20.29-1.87,30.71c1.04,10.2,0.37,20.57,0.53,30.86c0.39,24.53,0.76,49.07,1.29,73.6
			c0.25,11.61,7.1,20.01,18.31,23.1c0.72,0.2,1.39,0.6,2.08,0.91c2.22,0,4.44,0,6.65,0c8.05-2.23,16.05-4.67,24.17-6.64
			c9.83-2.38,16.88-7.67,20.06-17.89c0.94,0.54,1.76,0.88,2.44,1.42c4.61,3.67,9.59,5.39,14.91,5.39c2.42,0,4.91-0.36,7.46-1.04
			c36.33-9.79,72.64-19.64,108.99-29.37c24.28-6.5,48.61-12.8,72.91-19.25c16.65-4.42,33.27-8.98,49.91-13.43
			c35.2-9.42,61.04-38.66,65.98-74.94c2.75-20.19,1.28-39.88-8.7-58.13c-2.7-4.94-6.49-9.29-9.77-13.91
			c3.35-2.29,6.78-4.85,10.44-7.01c1.01-0.6,2.39-0.66,3.72-0.66c0.32,0,0.63,0,0.94,0c3.58,0.01,7.29,0.63,10.85,0.63
			c1.69,0,3.35-0.14,4.94-0.55c49.43-12.88,98.87-25.77,148.03-39.63c14.07-3.97,28.43-6.65,42.39-10.99
			c12.51-3.88,18.94-11.78,18.91-25c-0.03-9.66-0.27-19.32-0.21-28.98c0.01-2.3,0.5-4.74,1.37-6.86
			c10.06-24.59,20.23-49.13,30.35-73.69c0.78-1.9,2.02-3.89,1.95-5.79c-0.19-5.74,3.42-6.83,7.91-8.39
			c25.63-8.94,43.83-25.43,51.08-52.35c3.8-14.11,1.92-26.47-6.13-43.74c7.91-8.14,8.24-17.79,5.25-28.16
			c-6.98-24.23-26.74-39.11-50.9-39.11c-4.63,0-9.43,0.55-14.32,1.68c-10.31,2.39-20.12,6.94-30.77,10.72
			c0-5.58,0.05-11.84-0.01-18.1c-0.12-11.24-0.52-22.49-0.42-33.73c0.15-18.51-4.04-35.33-17.56-48.91
			c-10.1-10.14-22-16.36-36.46-17.25C617.35,42.5,616.66,42.05,615.96,41.78L615.96,41.78z"/>
	</g>
</g>
</svg>
